<?xml version="1.0" encoding="UTF-8" standalone="no"?>
<!DOCTYPE svg PUBLIC "-//W3C//DTD SVG 1.1//EN"
 "http://www.w3.org/Graphics/SVG/1.1/DTD/svg11.dtd">
<!-- Generated by graphviz version 2.43.0 (0)
 -->
<!-- Title: %3 Pages: 1 -->
<svg width="299pt" height="180pt"
 viewBox="0.00 0.00 298.50 180.02" xmlns="http://www.w3.org/2000/svg" xmlns:xlink="http://www.w3.org/1999/xlink">
<g id="graph0" class="graph" transform="scale(1 1) rotate(0) translate(4 176.02)">
<title>%3</title>
<polygon fill="white" stroke="transparent" points="-4,4 -4,-176.02 294.5,-176.02 294.5,4 -4,4"/>
<!-- &#45;1 -->
<g id="node1" class="node">
<title>&#45;1</title>
<polygon fill="lightgray" stroke="black" points="60.78,-172.02 34.78,-172.02 34.78,-154.02 60.78,-154.02 60.78,-172.02"/>
<text text-anchor="middle" x="47.78" y="-160.82" font-family="Times,serif" font-size="9.00">&#45;1</text>
</g>
<!-- 1 -->
<g id="node5" class="node">
<title>1</title>
<ellipse fill="lightblue" stroke="black" cx="73.78" cy="-16.26" rx="16.03" ry="16.03"/>
<text text-anchor="middle" x="73.78" y="-14.06" font-family="Times,serif" font-size="9.00">1</text>
</g>
<!-- &#45;1&#45;&gt;1 -->
<g id="edge13" class="edge">
<title>&#45;1&#45;&gt;1</title>
<path fill="none" stroke="green" stroke-width="0.23" d="M36.25,-153.76C26.31,-145.87 12.67,-132.99 6.78,-118.02 -1.28,-97.55 -2.96,-88.25 6.78,-68.53 15.75,-50.37 34.58,-36.87 50,-28.29"/>
<polygon fill="green" stroke="green" stroke-width="0.23" points="51.79,-31.31 59.05,-23.59 48.56,-25.1 51.79,-31.31"/>
</g>
<!-- 2 -->
<g id="node6" class="node">
<title>2</title>
<ellipse fill="lightblue" stroke="black" cx="140.78" cy="-16.26" rx="16.03" ry="16.03"/>
<text text-anchor="middle" x="140.78" y="-14.06" font-family="Times,serif" font-size="9.00">2</text>
</g>
<!-- &#45;1&#45;&gt;2 -->
<g id="edge14" class="edge">
<title>&#45;1&#45;&gt;2</title>
<path fill="none" stroke="red" stroke-width="0.3" d="M44.03,-153.77C36.78,-136.5 22.99,-95.88 39.78,-68.53 48.4,-54.48 89.02,-36.86 116.05,-26.36"/>
<polygon fill="red" stroke="red" stroke-width="0.3" points="117.54,-29.53 125.65,-22.71 115.05,-22.99 117.54,-29.53"/>
</g>
<!-- 141 -->
<g id="node7" class="node">
<title>141</title>
<ellipse fill="white" stroke="black" cx="73.78" cy="-93.28" rx="25" ry="25"/>
<text text-anchor="middle" x="73.78" y="-91.08" font-family="Times,serif" font-size="9.00">141</text>
</g>
<!-- &#45;1&#45;&gt;141 -->
<g id="edge1" class="edge">
<title>&#45;1&#45;&gt;141</title>
<path fill="none" stroke="red" stroke-width="0.48" d="M50.87,-153.99C53.56,-146.96 57.67,-136.27 61.66,-125.87"/>
<polygon fill="red" stroke="red" stroke-width="0.48" points="64.93,-127.1 65.25,-116.51 58.4,-124.6 64.93,-127.1"/>
</g>
<!-- 143 -->
<g id="node8" class="node">
<title>143</title>
<ellipse fill="white" stroke="black" cx="140.78" cy="-93.28" rx="25" ry="25"/>
<text text-anchor="middle" x="140.78" y="-91.08" font-family="Times,serif" font-size="9.00">143</text>
</g>
<!-- &#45;1&#45;&gt;143 -->
<g id="edge2" class="edge">
<title>&#45;1&#45;&gt;143</title>
<path fill="none" stroke="red" stroke-width="0.18" d="M58.81,-153.99C71.96,-144.41 94.43,-128.04 112.52,-114.87"/>
<polygon fill="red" stroke="red" stroke-width="0.18" points="114.96,-117.41 120.99,-108.7 110.84,-111.76 114.96,-117.41"/>
</g>
<!-- &#45;2 -->
<g id="node2" class="node">
<title>&#45;2</title>
<polygon fill="lightgray" stroke="black" points="174.78,-172.02 148.78,-172.02 148.78,-154.02 174.78,-154.02 174.78,-172.02"/>
<text text-anchor="middle" x="161.78" y="-160.82" font-family="Times,serif" font-size="9.00">&#45;2</text>
</g>
<!-- 0 -->
<g id="node4" class="node">
<title>0</title>
<ellipse fill="lightblue" stroke="black" cx="211.78" cy="-16.26" rx="16.03" ry="16.03"/>
<text text-anchor="middle" x="211.78" y="-14.06" font-family="Times,serif" font-size="9.00">0</text>
</g>
<!-- &#45;2&#45;&gt;0 -->
<g id="edge15" class="edge">
<title>&#45;2&#45;&gt;0</title>
<path fill="none" stroke="red" stroke-width="0.34" d="M168.31,-153.75C174.7,-145.26 184.26,-131.42 189.78,-118.02 199.89,-93.49 205.67,-63.6 208.74,-42.78"/>
<polygon fill="red" stroke="red" stroke-width="0.34" points="212.22,-43.17 210.11,-32.79 205.28,-42.22 212.22,-43.17"/>
</g>
<!-- &#45;2&#45;&gt;2 -->
<g id="edge16" class="edge">
<title>&#45;2&#45;&gt;2</title>
<path fill="none" stroke="green" stroke-width="0.45" d="M165.21,-153.84C171.63,-137.36 184.01,-99.12 174.78,-68.53 171.32,-57.06 164.37,-45.8 157.65,-36.77"/>
<polygon fill="green" stroke="green" stroke-width="0.45" points="160.34,-34.53 151.39,-28.86 154.85,-38.87 160.34,-34.53"/>
</g>
<!-- &#45;2&#45;&gt;141 -->
<g id="edge3" class="edge">
<title>&#45;2&#45;&gt;141</title>
<path fill="none" stroke="red" stroke-width="0.14" d="M151.34,-153.99C139.06,-144.53 118.18,-128.45 101.17,-115.36"/>
<polygon fill="red" stroke="red" stroke-width="0.14" points="103.25,-112.55 93.19,-109.22 98.98,-118.09 103.25,-112.55"/>
</g>
<!-- &#45;2&#45;&gt;143 -->
<g id="edge4" class="edge">
<title>&#45;2&#45;&gt;143</title>
<path fill="none" stroke="red" stroke-width="0.56" d="M159.29,-153.99C157.17,-147.13 153.96,-136.81 150.82,-126.66"/>
<polygon fill="red" stroke="red" stroke-width="0.56" points="154.16,-125.62 147.86,-117.1 147.48,-127.69 154.16,-125.62"/>
</g>
<!-- &#45;3 -->
<g id="node3" class="node">
<title>&#45;3</title>
<polygon fill="lightgray" stroke="black" points="260.78,-172.02 234.78,-172.02 234.78,-154.02 260.78,-154.02 260.78,-172.02"/>
<text text-anchor="middle" x="247.78" y="-160.82" font-family="Times,serif" font-size="9.00">&#45;3</text>
</g>
<!-- &#45;3&#45;&gt;0 -->
<g id="edge17" class="edge">
<title>&#45;3&#45;&gt;0</title>
<path fill="none" stroke="green" stroke-width="0.15" d="M257.6,-153.77C266.37,-145.69 278.6,-132.53 283.78,-118.02 291.18,-97.31 293.86,-88.08 283.78,-68.53 273.79,-49.15 252.7,-35.48 235.92,-27.17"/>
<polygon fill="green" stroke="green" stroke-width="0.15" points="237.2,-23.9 226.65,-22.88 234.26,-30.25 237.2,-23.9"/>
</g>
<!-- &#45;3&#45;&gt;2 -->
<g id="edge18" class="edge">
<title>&#45;3&#45;&gt;2</title>
<path fill="none" stroke="green" stroke-width="0.17" d="M243.49,-153.9C234.53,-137.21 212.71,-98.13 189.78,-68.53 180.62,-56.7 169.12,-44.55 159.56,-35.05"/>
<polygon fill="green" stroke="green" stroke-width="0.17" points="161.99,-32.53 152.39,-28.05 157.1,-37.54 161.99,-32.53"/>
</g>
<!-- &#45;3&#45;&gt;141 -->
<g id="edge5" class="edge">
<title>&#45;3&#45;&gt;141</title>
<path fill="none" stroke="green" stroke-width="0.15" d="M234.41,-159.36C208.72,-153.92 151.06,-140.14 106.78,-118.02 104.98,-117.13 103.17,-116.13 101.38,-115.08"/>
<polygon fill="green" stroke="green" stroke-width="0.15" points="102.96,-111.93 92.66,-109.43 99.16,-117.81 102.96,-111.93"/>
</g>
<!-- &#45;3&#45;&gt;143 -->
<g id="edge6" class="edge">
<title>&#45;3&#45;&gt;143</title>
<path fill="none" stroke="green" stroke-width="0.75" d="M235.09,-153.99C219.2,-143.93 191.49,-126.38 170.21,-112.91"/>
<polygon fill="green" stroke="green" stroke-width="0.75" points="171.85,-109.81 161.53,-107.41 168.11,-115.72 171.85,-109.81"/>
</g>
<!-- 141&#45;&gt;0 -->
<g id="edge7" class="edge">
<title>141&#45;&gt;0</title>
<path fill="none" stroke="red" stroke-width="0.46" d="M93.31,-77.4C97.65,-74.32 102.3,-71.21 106.78,-68.53 133.53,-52.53 166,-37.27 187.68,-27.62"/>
<polygon fill="red" stroke="red" stroke-width="0.46" points="189.36,-30.71 197.11,-23.48 186.55,-24.3 189.36,-30.71"/>
</g>
<!-- 141&#45;&gt;1 -->
<g id="edge8" class="edge">
<title>141&#45;&gt;1</title>
<path fill="none" stroke="red" stroke-width="0.1" d="M73.78,-68.13C73.78,-60.03 73.78,-50.97 73.78,-42.77"/>
<polygon fill="red" stroke="red" stroke-width="0.1" points="77.28,-42.64 73.78,-32.64 70.28,-42.64 77.28,-42.64"/>
</g>
<!-- 141&#45;&gt;2 -->
<g id="edge9" class="edge">
<title>141&#45;&gt;2</title>
<path fill="none" stroke="green" stroke-width="0.65" d="M90,-74.12C100.1,-62.81 113.08,-48.28 123.39,-36.74"/>
<polygon fill="green" stroke="green" stroke-width="0.65" points="126.29,-38.74 130.34,-28.95 121.07,-34.07 126.29,-38.74"/>
</g>
<!-- 143&#45;&gt;0 -->
<g id="edge10" class="edge">
<title>143&#45;&gt;0</title>
<path fill="none" stroke="green" stroke-width="0.12" d="M157.61,-74.5C168.54,-62.95 182.76,-47.92 193.9,-36.16"/>
<polygon fill="green" stroke="green" stroke-width="0.12" points="196.7,-38.29 201.03,-28.62 191.62,-33.48 196.7,-38.29"/>
</g>
<!-- 143&#45;&gt;1 -->
<g id="edge11" class="edge">
<title>143&#45;&gt;1</title>
<path fill="none" stroke="green" stroke-width="0.15" d="M124.56,-74.12C114.47,-62.81 101.48,-48.28 91.17,-36.74"/>
<polygon fill="green" stroke="green" stroke-width="0.15" points="93.49,-34.07 84.22,-28.95 88.27,-38.74 93.49,-34.07"/>
</g>
<!-- 143&#45;&gt;2 -->
<g id="edge12" class="edge">
<title>143&#45;&gt;2</title>
<path fill="none" stroke="red" stroke-width="0.2" d="M140.78,-68.13C140.78,-60.03 140.78,-50.97 140.78,-42.77"/>
<polygon fill="red" stroke="red" stroke-width="0.2" points="144.28,-42.64 140.78,-32.64 137.28,-42.64 144.28,-42.64"/>
</g>
</g>
</svg>
