<?xml version="1.0" encoding="UTF-8" standalone="no"?>
<!DOCTYPE svg PUBLIC "-//W3C//DTD SVG 1.1//EN"
 "http://www.w3.org/Graphics/SVG/1.1/DTD/svg11.dtd">
<!-- Generated by graphviz version 2.43.0 (0)
 -->
<!-- Title: %3 Pages: 1 -->
<svg width="266pt" height="123pt"
 viewBox="0.00 0.00 265.91 122.81" xmlns="http://www.w3.org/2000/svg" xmlns:xlink="http://www.w3.org/1999/xlink">
<g id="graph0" class="graph" transform="scale(1 1) rotate(0) translate(4 118.81)">
<title>%3</title>
<polygon fill="white" stroke="transparent" points="-4,4 -4,-118.81 261.91,-118.81 261.91,4 -4,4"/>
<!-- Player Y -->
<g id="node1" class="node">
<title>Player Y</title>
<polygon fill="lightgray" stroke="black" points="55,-114.81 0,-114.81 0,-96.81 55,-96.81 55,-114.81"/>
<text text-anchor="middle" x="27.5" y="-103.61" font-family="Times,serif" font-size="9.00">Player Y</text>
</g>
<!-- Stay -->
<g id="node4" class="node">
<title>Stay</title>
<ellipse fill="lightblue" stroke="black" cx="71.5" cy="-30.41" rx="26.33" ry="26.33"/>
<text text-anchor="middle" x="71.5" y="-28.21" font-family="Times,serif" font-size="9.00">Stay</text>
</g>
<!-- Player Y&#45;&gt;Stay -->
<g id="edge1" class="edge">
<title>Player Y&#45;&gt;Stay</title>
<path fill="none" stroke="red" stroke-width="0.51" d="M32.38,-96.68C37.38,-88.32 45.48,-74.81 53.02,-62.24"/>
<polygon fill="red" stroke="red" stroke-width="0.51" points="56.21,-63.72 58.35,-53.34 50.21,-60.12 56.21,-63.72"/>
</g>
<!-- Ball Y -->
<g id="node2" class="node">
<title>Ball Y</title>
<polygon fill="lightgray" stroke="black" points="117.5,-114.81 73.5,-114.81 73.5,-96.81 117.5,-96.81 117.5,-114.81"/>
<text text-anchor="middle" x="95.5" y="-103.61" font-family="Times,serif" font-size="9.00">Ball Y</text>
</g>
<!-- Ball Y&#45;&gt;Stay -->
<g id="edge2" class="edge">
<title>Ball Y&#45;&gt;Stay</title>
<path fill="none" stroke="green" stroke-width="0.61" stroke-dasharray="1,5" d="M92.84,-96.68C90.32,-88.98 86.37,-76.89 82.55,-65.2"/>
<polygon fill="green" stroke="green" stroke-width="0.61" points="85.84,-63.99 79.4,-55.57 79.18,-66.17 85.84,-63.99"/>
</g>
<!-- Player&#45;Ball dist -->
<g id="node3" class="node">
<title>Player&#45;Ball dist</title>
<polygon fill="lightgray" stroke="black" points="248,-114.81 161,-114.81 161,-96.81 248,-96.81 248,-114.81"/>
<text text-anchor="middle" x="204.5" y="-103.61" font-family="Times,serif" font-size="9.00">Player&#45;Ball dist</text>
</g>
<!-- Up -->
<g id="node5" class="node">
<title>Up</title>
<ellipse fill="lightblue" stroke="black" cx="157.5" cy="-30.41" rx="21.43" ry="21.43"/>
<text text-anchor="middle" x="157.5" y="-28.21" font-family="Times,serif" font-size="9.00">Up</text>
</g>
<!-- Player&#45;Ball dist&#45;&gt;Up -->
<g id="edge3" class="edge">
<title>Player&#45;Ball dist&#45;&gt;Up</title>
<path fill="none" stroke="green" stroke-width="0.26" d="M199.29,-96.68C193.25,-87.24 183,-71.23 174.16,-57.42"/>
<polygon fill="green" stroke="green" stroke-width="0.26" points="176.95,-55.29 168.61,-48.76 171.06,-59.07 176.95,-55.29"/>
</g>
<!-- Down -->
<g id="node6" class="node">
<title>Down</title>
<ellipse fill="lightblue" stroke="black" cx="227.5" cy="-30.41" rx="30.31" ry="30.31"/>
<text text-anchor="middle" x="227.5" y="-28.21" font-family="Times,serif" font-size="9.00">Down</text>
</g>
<!-- Player&#45;Ball dist&#45;&gt;Down -->
<g id="edge4" class="edge">
<title>Player&#45;Ball dist&#45;&gt;Down</title>
<path fill="none" stroke="green" stroke-width="0.31" d="M207.05,-96.68C209.18,-89.89 212.37,-79.68 215.61,-69.35"/>
<polygon fill="green" stroke="green" stroke-width="0.31" points="219.04,-70.1 218.69,-59.51 212.36,-68.01 219.04,-70.1"/>
</g>
</g>
</svg>
