<?xml version="1.0" encoding="UTF-8" standalone="no"?>
<!DOCTYPE svg PUBLIC "-//W3C//DTD SVG 1.1//EN"
 "http://www.w3.org/Graphics/SVG/1.1/DTD/svg11.dtd">
<!-- Generated by graphviz version 2.43.0 (0)
 -->
<!-- Title: %3 Pages: 1 -->
<svg width="223pt" height="278pt"
 viewBox="0.00 0.00 222.91 278.25" xmlns="http://www.w3.org/2000/svg" xmlns:xlink="http://www.w3.org/1999/xlink">
<g id="graph0" class="graph" transform="scale(1 1) rotate(0) translate(4 274.25)">
<title>%3</title>
<polygon fill="white" stroke="transparent" points="-4,4 -4,-274.25 218.91,-274.25 218.91,4 -4,4"/>
<!-- Player Y -->
<g id="node1" class="node">
<title>Player Y</title>
<polygon fill="lightgray" stroke="black" points="55,-270.25 0,-270.25 0,-252.25 55,-252.25 55,-270.25"/>
<text text-anchor="middle" x="27.5" y="-259.05" font-family="Times,serif" font-size="9.00">Player Y</text>
</g>
<!-- Up -->
<g id="node5" class="node">
<title>Up</title>
<ellipse fill="lightblue" stroke="black" cx="67.5" cy="-195.04" rx="21.43" ry="21.43"/>
<text text-anchor="middle" x="67.5" y="-192.84" font-family="Times,serif" font-size="9.00">Up</text>
</g>
<!-- Player Y&#45;&gt;Up -->
<g id="edge1" class="edge">
<title>Player Y&#45;&gt;Up</title>
<path fill="none" stroke="green" stroke-width="0.82" d="M32.57,-252.12C37.26,-244.58 44.51,-232.94 51.19,-222.21"/>
<polygon fill="green" stroke="green" stroke-width="0.82" points="54.29,-223.87 56.6,-213.53 48.35,-220.17 54.29,-223.87"/>
</g>
<!-- Ball Y -->
<g id="node2" class="node">
<title>Ball Y</title>
<polygon fill="lightgray" stroke="black" points="200.5,-126.32 156.5,-126.32 156.5,-108.32 200.5,-108.32 200.5,-126.32"/>
<text text-anchor="middle" x="178.5" y="-115.12" font-family="Times,serif" font-size="9.00">Ball Y</text>
</g>
<!-- Stay -->
<g id="node4" class="node">
<title>Stay</title>
<ellipse fill="lightblue" stroke="black" cx="109.5" cy="-30.41" rx="26.33" ry="26.33"/>
<text text-anchor="middle" x="109.5" y="-28.21" font-family="Times,serif" font-size="9.00">Stay</text>
</g>
<!-- Ball Y&#45;&gt;Stay -->
<g id="edge2" class="edge">
<title>Ball Y&#45;&gt;Stay</title>
<path fill="none" stroke="green" stroke-width="0.33" d="M171.88,-108.18C162.78,-96.97 145.95,-76.26 132.06,-59.16"/>
<polygon fill="green" stroke="green" stroke-width="0.33" points="134.54,-56.67 125.52,-51.12 129.11,-61.09 134.54,-56.67"/>
</g>
<!-- Down -->
<g id="node6" class="node">
<title>Down</title>
<ellipse fill="lightblue" stroke="black" cx="184.5" cy="-30.41" rx="30.31" ry="30.31"/>
<text text-anchor="middle" x="184.5" y="-28.21" font-family="Times,serif" font-size="9.00">Down</text>
</g>
<!-- Ball Y&#45;&gt;Down -->
<g id="edge3" class="edge">
<title>Ball Y&#45;&gt;Down</title>
<path fill="none" stroke="green" stroke-width="0.88" d="M179.08,-108.18C179.69,-99.49 180.71,-85.09 181.7,-71.08"/>
<polygon fill="green" stroke="green" stroke-width="0.88" points="185.19,-71.27 182.41,-61.05 178.21,-70.78 185.19,-71.27"/>
</g>
<!-- Player&#45;Ball dist -->
<g id="node3" class="node">
<title>Player&#45;Ball dist</title>
<polygon fill="lightgray" stroke="black" points="160,-270.25 73,-270.25 73,-252.25 160,-252.25 160,-270.25"/>
<text text-anchor="middle" x="116.5" y="-259.05" font-family="Times,serif" font-size="9.00">Player&#45;Ball dist</text>
</g>
<!-- Player&#45;Ball dist&#45;&gt;Stay -->
<g id="edge4" class="edge">
<title>Player&#45;Ball dist&#45;&gt;Stay</title>
<path fill="none" stroke="red" stroke-width="0.23" stroke-dasharray="1,5" d="M116.25,-252.11C115.35,-222.77 112.25,-121.37 110.58,-66.81"/>
<polygon fill="red" stroke="red" stroke-width="0.23" points="114.07,-66.45 110.27,-56.56 107.08,-66.66 114.07,-66.45"/>
</g>
<!-- Player&#45;Ball dist&#45;&gt;Up -->
<g id="edge5" class="edge">
<title>Player&#45;Ball dist&#45;&gt;Up</title>
<path fill="none" stroke="red" stroke-width="0.61" d="M110.29,-252.12C104.26,-244.21 94.79,-231.8 86.29,-220.66"/>
<polygon fill="red" stroke="red" stroke-width="0.61" points="88.9,-218.31 80.05,-212.48 83.33,-222.56 88.9,-218.31"/>
</g>
<!-- 96 -->
<g id="node7" class="node">
<title>96</title>
<ellipse fill="white" stroke="black" cx="67.5" cy="-117.32" rx="20.51" ry="20.51"/>
<text text-anchor="middle" x="67.5" y="-115.12" font-family="Times,serif" font-size="9.00">96</text>
</g>
<!-- Up&#45;&gt;96 -->
<g id="edge6" class="edge">
<title>Up&#45;&gt;96</title>
<path fill="none" stroke="green" stroke-width="0.19" stroke-dasharray="1,5" d="M67.5,-173.75C67.5,-165.83 67.5,-156.61 67.5,-147.98"/>
<polygon fill="green" stroke="green" stroke-width="0.19" points="71,-147.88 67.5,-137.88 64,-147.88 71,-147.88"/>
</g>
<!-- 96&#45;&gt;Stay -->
<g id="edge7" class="edge">
<title>96&#45;&gt;Stay</title>
<path fill="none" stroke="green" stroke-width="0.44" d="M76.2,-98.72C81.25,-88.53 87.75,-75.38 93.67,-63.41"/>
<polygon fill="green" stroke="green" stroke-width="0.44" points="96.96,-64.66 98.25,-54.14 90.68,-61.56 96.96,-64.66"/>
</g>
</g>
</svg>
