<?xml version="1.0" encoding="UTF-8" standalone="no"?>
<!DOCTYPE svg PUBLIC "-//W3C//DTD SVG 1.1//EN"
 "http://www.w3.org/Graphics/SVG/1.1/DTD/svg11.dtd">
<!-- Generated by graphviz version 2.43.0 (0)
 -->
<!-- Title: %3 Pages: 1 -->
<svg width="294pt" height="200pt"
 viewBox="0.00 0.00 294.16 199.82" xmlns="http://www.w3.org/2000/svg" xmlns:xlink="http://www.w3.org/1999/xlink">
<g id="graph0" class="graph" transform="scale(1 1) rotate(0) translate(4 195.82)">
<title>%3</title>
<polygon fill="white" stroke="transparent" points="-4,4 -4,-195.82 290.16,-195.82 290.16,4 -4,4"/>
<!-- Player Y -->
<g id="node1" class="node">
<title>Player Y</title>
<polygon fill="lightgray" stroke="black" points="118.66,-191.82 63.66,-191.82 63.66,-173.82 118.66,-173.82 118.66,-191.82"/>
<text text-anchor="middle" x="91.16" y="-180.62" font-family="Times,serif" font-size="9.00">Player Y</text>
</g>
<!-- Stay -->
<g id="node4" class="node">
<title>Stay</title>
<ellipse fill="lightblue" stroke="black" cx="26.16" cy="-107.42" rx="26.33" ry="26.33"/>
<text text-anchor="middle" x="26.16" y="-105.22" font-family="Times,serif" font-size="9.00">Stay</text>
</g>
<!-- Player Y&#45;&gt;Stay -->
<g id="edge7" class="edge">
<title>Player Y&#45;&gt;Stay</title>
<path fill="none" stroke="green" stroke-width="0.1" d="M83.96,-173.69C75.78,-164.45 62.01,-148.9 49.96,-135.29"/>
<polygon fill="green" stroke="green" stroke-width="0.1" points="52.37,-132.73 43.12,-127.57 47.13,-137.37 52.37,-132.73"/>
</g>
<!-- Up -->
<g id="node5" class="node">
<title>Up</title>
<ellipse fill="lightblue" stroke="black" cx="91.16" cy="-107.42" rx="21.43" ry="21.43"/>
<text text-anchor="middle" x="91.16" y="-105.22" font-family="Times,serif" font-size="9.00">Up</text>
</g>
<!-- Player Y&#45;&gt;Up -->
<g id="edge1" class="edge">
<title>Player Y&#45;&gt;Up</title>
<path fill="none" stroke="green" stroke-width="0.82" d="M91.16,-173.69C91.16,-165.29 91.16,-151.67 91.16,-139.03"/>
<polygon fill="green" stroke="green" stroke-width="0.82" points="94.66,-138.79 91.16,-128.79 87.66,-138.79 94.66,-138.79"/>
</g>
<!-- Down -->
<g id="node6" class="node">
<title>Down</title>
<ellipse fill="lightblue" stroke="black" cx="198.16" cy="-107.42" rx="30.31" ry="30.31"/>
<text text-anchor="middle" x="198.16" y="-105.22" font-family="Times,serif" font-size="9.00">Down</text>
</g>
<!-- Player Y&#45;&gt;Down -->
<g id="edge6" class="edge">
<title>Player Y&#45;&gt;Down</title>
<path fill="none" stroke="red" stroke-width="0.3" d="M103.02,-173.69C117.85,-163.52 143.84,-145.69 164.91,-131.23"/>
<polygon fill="red" stroke="red" stroke-width="0.3" points="167.03,-134.02 173.3,-125.48 163.07,-128.25 167.03,-134.02"/>
</g>
<!-- 96 -->
<g id="node7" class="node">
<title>96</title>
<ellipse fill="white" stroke="black" cx="140.16" cy="-20.51" rx="20.51" ry="20.51"/>
<text text-anchor="middle" x="140.16" y="-18.31" font-family="Times,serif" font-size="9.00">96</text>
</g>
<!-- Player Y&#45;&gt;96 -->
<g id="edge3" class="edge">
<title>Player Y&#45;&gt;96</title>
<path fill="none" stroke="red" stroke-width="0.49" stroke-dasharray="1,5" d="M98.34,-173.7C105.33,-165.31 115.67,-151.56 121.16,-137.82 132.36,-109.81 136.96,-75.49 138.85,-51.41"/>
<polygon fill="red" stroke="red" stroke-width="0.49" points="142.36,-51.34 139.54,-41.13 135.38,-50.87 142.36,-51.34"/>
</g>
<!-- Ball Y -->
<g id="node2" class="node">
<title>Ball Y</title>
<polygon fill="lightgray" stroke="black" points="286.16,-191.82 242.16,-191.82 242.16,-173.82 286.16,-173.82 286.16,-191.82"/>
<text text-anchor="middle" x="264.16" y="-180.62" font-family="Times,serif" font-size="9.00">Ball Y</text>
</g>
<!-- Ball Y&#45;&gt;Down -->
<g id="edge2" class="edge">
<title>Ball Y&#45;&gt;Down</title>
<path fill="none" stroke="green" stroke-width="1.11" d="M256.85,-173.69C249.18,-165.16 236.66,-151.23 225.15,-138.43"/>
<polygon fill="green" stroke="green" stroke-width="1.11" points="227.46,-135.77 218.17,-130.67 222.25,-140.45 227.46,-135.77"/>
</g>
<!-- Ball Y&#45;&gt;96 -->
<g id="edge8" class="edge">
<title>Ball Y&#45;&gt;96</title>
<path fill="none" stroke="red" stroke-width="0.15" d="M264.13,-173.55C263.65,-154.53 260.07,-107.04 237.16,-77.01 220.02,-54.54 190.97,-39.67 169.12,-31.02"/>
<polygon fill="red" stroke="red" stroke-width="0.15" points="170.25,-27.71 159.66,-27.49 167.8,-34.27 170.25,-27.71"/>
</g>
<!-- Player&#45;Ball dist -->
<g id="node3" class="node">
<title>Player&#45;Ball dist</title>
<polygon fill="lightgray" stroke="black" points="223.66,-191.82 136.66,-191.82 136.66,-173.82 223.66,-173.82 223.66,-191.82"/>
<text text-anchor="middle" x="180.16" y="-180.62" font-family="Times,serif" font-size="9.00">Player&#45;Ball dist</text>
</g>
<!-- Player&#45;Ball dist&#45;&gt;Down -->
<g id="edge5" class="edge">
<title>Player&#45;Ball dist&#45;&gt;Down</title>
<path fill="none" stroke="green" stroke-width="0.34" stroke-dasharray="1,5" d="M182.16,-173.69C183.78,-167.08 186.19,-157.24 188.65,-147.19"/>
<polygon fill="green" stroke="green" stroke-width="0.34" points="192.13,-147.74 191.11,-137.19 185.33,-146.07 192.13,-147.74"/>
</g>
<!-- Up&#45;&gt;96 -->
<g id="edge4" class="edge">
<title>Up&#45;&gt;96</title>
<path fill="none" stroke="green" stroke-width="0.12" stroke-dasharray="1,5" d="M101.55,-88.41C108.45,-76.46 117.6,-60.6 125.27,-47.32"/>
<polygon fill="green" stroke="green" stroke-width="0.12" points="128.32,-49.03 130.29,-38.62 122.26,-45.53 128.32,-49.03"/>
</g>
</g>
</svg>
